<svg xmlns="http://www.w3.org/2000/svg" width="749" height="88" viewBox="0 0 749 88"><g><g><path fill="#737373" d="M705.512 8.062c1.388-.03 2.036.608 2.93 1.075 1.504.785 3.028 1.482 4.491 2.245 4.016 2.096 8.09 3.868 12.11 5.958 1.53.794 3.117 1.527 4.687 2.343.47.244 1.063.72 1.563.88h15.82c.238.277.567.363.781.683.491.623.293 2.244.293 3.32v51.465c0 1.48.207 3.013-.683 3.613-.81.638-3.352.293-4.688.293h-74.023c-1.611 0-4.173.348-4.785-.683-.531-.894-.196-3.222-.196-4.493V63.434 21.637c.362-.373.702-.713 1.075-1.075h15.82c.368-.12.825-.503 1.172-.684 1.118-.582 2.243-1.099 3.32-1.66 3.312-1.725 6.69-3.276 9.961-4.98 2.409-1.255 4.859-2.38 7.227-3.613.972-.507 2.36-.823 3.125-1.563zm.293 3.32c-.711.826-2.94 1.497-4.004 2.051-3.149 1.638-6.424 3.242-9.57 4.883-.746.389-4.12 1.766-4.395 2.246h36.328v-.195c-1.188-.158-3.51-1.683-4.59-2.246-3.241-1.692-6.522-3.099-9.765-4.785-1.053-.548-2.781-1.793-4.004-1.954zm-38.868 12.305v53.125h78.125V23.687h-78.125zm56.641 9.375c6.035-.072 9.016 2.42 11.035 6.348.816 1.586 1.546 4.52.879 6.934-.362 1.309-.877 2.666-1.562 3.71-.337.513-1.13 1.012-1.368 1.563v17.871c-.361.373-.702.712-1.074 1.074-.551-.002-1.004.013-1.367-.195l-.977-1.074-2.93-2.832c-.471-.472-.844-1.261-1.66-1.367l-5.175 5.273c-.364.207-.816.195-1.367.195-.157-.187-.17-.053-.391-.195-.296-.19-.439-.628-.684-.879V51.617c-2.146-1.512-4.073-6.97-2.734-10.742.86-2.423 2.285-4.49 4.2-5.86.9-.645 2.118-1.172 3.222-1.562.594-.21 1.461-.067 1.953-.391zm-46.191 3.125h29.101c.232.252.71.384.879.684.45.798.076 1.784-.488 2.148-.81.644-5.311.293-6.836.293h-17.969c-2.703 0-5.769.838-5.762-2.05.173-.144.15-.32.293-.489.209-.247.575-.338.782-.586zm46.386 0l-2.148.586c-1.91.94-3.515 2.533-4.297 4.59-1.344 3.536.464 6.535 2.148 8.3l.489.685c.434.262 1.356.55 2.05.878.777.367 2.358.918 3.711.586 2.912-.713 4.82-1.928 6.055-4.296 2.664-5.112-1.172-9.913-5.078-11.133-.839-.263-1.873-.207-2.93-.196zm-46.386 6.25h19.726c1.121.373 1.43 2.138.39 2.832-.71.57-3.869.293-5.175.293h-11.523c-2.42 0-4.505.478-4.493-2.05a51.97 51.97 0 0 1 1.075-1.075zm0 6.25h19.726c.157.187.17.053.39.195.297.191.44.629.684.88.033.908-.156 1.419-.683 1.757-.71.57-3.87.293-5.176.293h-11.523c-2.42 0-4.505.478-4.493-2.05.246-.251.388-.688.684-.88.22-.142.234-.008.39-.195zm42.675 5.274v11.133h.196c.674-1.04 1.863-1.864 2.734-2.735.372-.372.747-.974 1.27-1.172h.976c.923.904 1.92 1.724 2.832 2.637.414.415.77 1.055 1.367 1.27V53.96c-1.634.255-3.494 1.525-5.859.976-1.1-.255-2.569-.871-3.516-.976zm-38.867 9.765c-.724-.013-1.421-.515-1.758-.39-.242.283-.353.79-.683.976-1.196.676-1.904-.299-2.442-.878-.095-2.934 1.103-5.145 2.344-6.837.959-1.306 2.439-.437 2.93.684.675-.214 1.109-.277 1.855-.098.19.286.573.539.684.88v4.687h.195v-.196c.507-.697.343-1.57 1.074-2.05.288-.24.63-.296 1.172-.294.496.444.858.513 1.172 1.172l1.465-.976c.46-.202.992-.22 1.465-.39.238-.642.508-1.145 1.367-1.173.169-.102.582-.052.781.098.508.16.86.607.88 1.27.486 1.035-1.23 2.915-2.052 3.124-.544.14-.884-.255-1.367 0-.677.359-1.228 1.192-1.953 1.563-.539.276-1.335.164-1.855.488-.863.927-.969 2.075-2.832 2.051-.144-.17-.318-.15-.489-.293-.917-.765-1.755-1.955-1.953-3.418z"/><path fill="#a4c58c" d="M705.512 8.062c1.388-.03 2.036.608 2.93 1.075 1.504.785 3.028 1.482 4.491 2.245 4.016 2.096 8.09 3.868 12.11 5.958 1.53.794 3.117 1.527 4.687 2.343.47.244 1.063.72 1.563.88h15.82c.238.277.567.363.781.683.491.623.293 2.244.293 3.32v51.465c0 1.48.207 3.013-.683 3.613-.81.638-3.352.293-4.688.293h-74.023c-1.611 0-4.173.348-4.785-.683-.531-.894-.196-3.222-.196-4.493V63.434 21.637c.362-.373.702-.713 1.075-1.075h15.82c.368-.12.825-.503 1.172-.684 1.118-.582 2.243-1.099 3.32-1.66 3.312-1.725 6.69-3.276 9.961-4.98 2.409-1.255 4.859-2.38 7.227-3.613.972-.507 2.36-.823 3.125-1.563zm.293 3.32c-.711.826-2.94 1.497-4.004 2.051-3.149 1.638-6.424 3.242-9.57 4.883-.746.389-4.12 1.766-4.395 2.246h36.328v-.195c-1.188-.158-3.51-1.683-4.59-2.246-3.241-1.692-6.522-3.099-9.765-4.785-1.053-.548-2.781-1.793-4.004-1.954zm-38.868 12.305v53.125h78.125V23.687h-78.125zm56.641 9.375c6.035-.072 9.016 2.42 11.035 6.348.816 1.586 1.546 4.52.879 6.934-.362 1.309-.877 2.666-1.562 3.71-.337.513-1.13 1.012-1.368 1.563v17.871c-.361.373-.702.712-1.074 1.074-.551-.002-1.004.013-1.367-.195l-.977-1.074-2.93-2.832c-.471-.472-.844-1.261-1.66-1.367l-5.175 5.273c-.364.207-.816.195-1.367.195-.157-.187-.17-.053-.391-.195-.296-.19-.439-.628-.684-.879V51.617c-2.146-1.512-4.073-6.97-2.734-10.742.86-2.423 2.285-4.49 4.2-5.86.9-.645 2.118-1.172 3.222-1.562.594-.21 1.461-.067 1.953-.391zm-46.191 3.125h29.101c.232.252.71.384.879.684.45.798.076 1.784-.488 2.148-.81.644-5.311.293-6.836.293h-17.969c-2.703 0-5.769.838-5.762-2.05.173-.144.15-.32.293-.489.209-.247.575-.338.782-.586zm46.386 0l-2.148.586c-1.91.94-3.515 2.533-4.297 4.59-1.344 3.536.464 6.535 2.148 8.3l.489.685c.434.262 1.356.55 2.05.878.777.367 2.358.918 3.711.586 2.912-.713 4.82-1.928 6.055-4.296 2.664-5.112-1.172-9.913-5.078-11.133-.839-.263-1.873-.207-2.93-.196zm-46.386 6.25h19.726c1.121.373 1.43 2.138.39 2.832-.71.57-3.869.293-5.175.293h-11.523c-2.42 0-4.505.478-4.493-2.05a51.97 51.97 0 0 1 1.075-1.075zm0 6.25h19.726c.157.187.17.053.39.195.297.191.44.629.684.88.033.908-.156 1.419-.683 1.757-.71.57-3.87.293-5.176.293h-11.523c-2.42 0-4.505.478-4.493-2.05.246-.251.388-.688.684-.88.22-.142.234-.008.39-.195zm42.675 5.274v11.133h.196c.674-1.04 1.863-1.864 2.734-2.735.372-.372.747-.974 1.27-1.172h.976c.923.904 1.92 1.724 2.832 2.637.414.415.77 1.055 1.367 1.27V53.96c-1.634.255-3.494 1.525-5.859.976-1.1-.255-2.569-.871-3.516-.976zm-38.867 9.765c-.724-.013-1.421-.515-1.758-.39-.242.283-.353.79-.683.976-1.196.676-1.904-.299-2.442-.878-.095-2.934 1.103-5.145 2.344-6.837.959-1.306 2.439-.437 2.93.684.675-.214 1.109-.277 1.855-.098.19.286.573.539.684.88v4.687h.195v-.196c.507-.697.343-1.57 1.074-2.05.288-.24.63-.296 1.172-.294.496.444.858.513 1.172 1.172l1.465-.976c.46-.202.992-.22 1.465-.39.238-.642.508-1.145 1.367-1.173.169-.102.582-.052.781.098.508.16.86.607.88 1.27.486 1.035-1.23 2.915-2.052 3.124-.544.14-.884-.255-1.367 0-.677.359-1.228 1.192-1.953 1.563-.539.276-1.335.164-1.855.488-.863.927-.969 2.075-2.832 2.051-.144-.17-.318-.15-.489-.293-.917-.765-1.755-1.955-1.953-3.418z"/></g><g><path fill="#737373" d="M352.17 7.71c4.993-.079 10.175.047 14.268 1.074 2.034.51 3.822.538 5.668 1.171 1.349.464 2.79 1.08 4.006 1.758.584.324 1.029 1.01 1.76 1.171.34-.482.866-.65 1.367-.976 1.765-1.15 4-1.86 6.255-2.538.857-.258 1.548-.159 2.443-.39 1.802-.467 4.118-.531 6.059-.976h1.563c1.227-.266 2.88.11 4.3-.196.895-.192 2.623-.199 3.518 0 1.415.316 3.075-.078 4.3.196h1.563c1.007.23 2.207.125 3.323.39 2.571.61 5.278.924 7.524 1.757 2.68.994 5.384 2.012 6.84 4.197.851 1.276.685 3.521.685 5.662V61.395c0 5.693.137 11.65-.098 17.18-.557.444-.832 1.062-1.661 1.269-.62.154-1.335-.27-1.76-.39-1.17-.332-2.479-.327-3.615-.586-1.268-.29-2.635-.134-3.81-.391H415.2c-.852-.185-2 .027-3.03-.194-1.871-.405-4.363-.292-6.449-.294-2.19-.001-4.814-.435-6.84 0-.855.184-2.004-.06-2.737.098h-2.54c-1.134.243-2.721.152-3.812.39l-3.42.196c-1.987.446-4.186.313-6.254.78-.749.17-2.006.613-2.932.39-2.505-.6-5.533-.59-8.11-1.17-1.384-.312-2.911-.11-4.203-.39l-4.202-.196h-1.563c-1.295-.277-3.768-.32-5.082-.098-.702.12-1.907-.157-2.638 0l-6.743.098c-.997.214-2.263-.055-3.42.196-2.644.57-5.727.373-8.21.975-1.764.428-3.943 1.017-4.885-.39-.616-.92-.293-3.358-.293-4.783V61.884 15.812c.33-.292.348-.883.586-1.268.335-.543.96-1.28 1.466-1.66 2.88-2.165 6.453-3.054 10.554-4.1 2.683-.684 5.696-.368 8.502-.976.926-.2 2.509.354 3.224-.097zm-1.66 4.198c-.392.23-1.128-.02-1.662.098-1.185.26-2.454.002-3.714.292-4.83 1.113-10.09 1.217-13.094 4.1v54.368c0 .828-.183 3.987 0 4.295.105.073.092.059.293.098.704-.461 1.89-.182 2.834-.391 1.544-.342 3.504-.243 5.081-.586h1.857c1.092-.234 2.537.077 3.811-.195 1.987-.423 4.573-.195 6.84-.195 8.297 0 15.615.676 22.77 1.562.416-1.267.098-4.03.098-5.564V57.492 16.593c-.079-.115-.076-.164-.098-.39-6.054-3.858-15.077-4.22-25.017-4.295zm29.316 63.446c1.798-.114 3.947-.391 5.668-.781 1.352-.307 2.851-.115 4.104-.39h1.661c1.472-.318 3.462-.063 4.984-.391h7.72c6.894 0 13.407.608 19.447 1.367V16.3c-.363-.233-.607-.671-.977-.878-1.018-.567-2.05-.737-3.225-1.172-4.677-1.73-10.68-2.34-17.004-2.342-4.448 0-8.88.032-12.508.976-.665.173-1.098.01-1.76.195-2.98.837-6.164 1.453-8.11 3.32v58.955zM341.91 29.477h17.199c3.2 0 6.075-.755 6.058 2.636-.477.532-.609 1.205-1.368 1.464-1.212.413-3.9.098-5.374.098h-11.922c-3.282 0-6.186.76-6.157-2.733.328-.347.475-.906.88-1.172.233-.153.492-.12.684-.293zm50.033 0h17.2c1.934 0 5.145-.47 5.667.977 1.131 1.148-.162 3.124-1.563 3.123-.6.378-4.083.098-5.082.098H395.07c-2.019 0-4.299.253-4.495-1.562-.93-1.16.865-2.2 1.368-2.636zM341.91 41.972h17.199c3.206 0 6.075-.763 6.058 2.635-.48.536-.609 1.196-1.368 1.464-1.181.417-3.921.098-5.374.098h-11.922c-3.277 0-6.186.753-6.157-2.734.3-.316.423-.816.782-1.073.244-.175.568-.195.782-.39zm50.131 0h17.2c2.974 0 5.943-.596 5.96 2.44-.48.63-.576 1.345-1.368 1.66-1.03.407-3.767.097-5.081.097h-11.923c-2.346 0-6.023.576-6.254-1.562-.339-.419-.085-.938 0-1.464.23-.179.277-.505.489-.683.272-.229.697-.267.977-.488zM341.91 54.465h21.693c.826.258 1.042.919 1.564 1.465.013 1.421-.362 2.281-1.368 2.635-1.24.437-4.144.098-5.668.098h-11.335c-1.395 0-3.943.296-5.082-.098-.696-.241-.913-.888-1.368-1.366-.043-2.11.532-1.823 1.564-2.734zm50.131 0h17.2c2.979 0 5.943-.6 5.96 2.44-.472.62-.568 1.376-1.368 1.66-1.156.41-3.851.098-5.277.098H396.83c-2.346 0-6.023.576-6.254-1.562-.339-.419-.085-.937 0-1.464.214-.164.209-.402.391-.586.276-.278.768-.337 1.075-.586z"/><path fill="#a4c58c" d="M352.17 7.71c4.993-.079 10.175.047 14.268 1.074 2.034.51 3.822.538 5.668 1.171 1.349.464 2.79 1.08 4.006 1.758.584.324 1.029 1.01 1.76 1.171.34-.482.866-.65 1.367-.976 1.765-1.15 4-1.86 6.255-2.538.857-.258 1.548-.159 2.443-.39 1.802-.467 4.118-.531 6.059-.976h1.563c1.227-.266 2.88.11 4.3-.196.895-.192 2.623-.199 3.518 0 1.415.316 3.075-.078 4.3.196h1.563c1.007.23 2.207.125 3.323.39 2.571.61 5.278.924 7.524 1.757 2.68.994 5.384 2.012 6.84 4.197.851 1.276.685 3.521.685 5.662V61.395c0 5.693.137 11.65-.098 17.18-.557.444-.832 1.062-1.661 1.269-.62.154-1.335-.27-1.76-.39-1.17-.332-2.479-.327-3.615-.586-1.268-.29-2.635-.134-3.81-.391H415.2c-.852-.185-2 .027-3.03-.194-1.871-.405-4.363-.292-6.449-.294-2.19-.001-4.814-.435-6.84 0-.855.184-2.004-.06-2.737.098h-2.54c-1.134.243-2.721.152-3.812.39l-3.42.196c-1.987.446-4.186.313-6.254.78-.749.17-2.006.613-2.932.39-2.505-.6-5.533-.59-8.11-1.17-1.384-.312-2.911-.11-4.203-.39l-4.202-.196h-1.563c-1.295-.277-3.768-.32-5.082-.098-.702.12-1.907-.157-2.638 0l-6.743.098c-.997.214-2.263-.055-3.42.196-2.644.57-5.727.373-8.21.975-1.764.428-3.943 1.017-4.885-.39-.616-.92-.293-3.358-.293-4.783V61.884 15.812c.33-.292.348-.883.586-1.268.335-.543.96-1.28 1.466-1.66 2.88-2.165 6.453-3.054 10.554-4.1 2.683-.684 5.696-.368 8.502-.976.926-.2 2.509.354 3.224-.097zm-1.66 4.198c-.392.23-1.128-.02-1.662.098-1.185.26-2.454.002-3.714.292-4.83 1.113-10.09 1.217-13.094 4.1v54.368c0 .828-.183 3.987 0 4.295.105.073.092.059.293.098.704-.461 1.89-.182 2.834-.391 1.544-.342 3.504-.243 5.081-.586h1.857c1.092-.234 2.537.077 3.811-.195 1.987-.423 4.573-.195 6.84-.195 8.297 0 15.615.676 22.77 1.562.416-1.267.098-4.03.098-5.564V57.492 16.593c-.079-.115-.076-.164-.098-.39-6.054-3.858-15.077-4.22-25.017-4.295zm29.316 63.446c1.798-.114 3.947-.391 5.668-.781 1.352-.307 2.851-.115 4.104-.39h1.661c1.472-.318 3.462-.063 4.984-.391h7.72c6.894 0 13.407.608 19.447 1.367V16.3c-.363-.233-.607-.671-.977-.878-1.018-.567-2.05-.737-3.225-1.172-4.677-1.73-10.68-2.34-17.004-2.342-4.448 0-8.88.032-12.508.976-.665.173-1.098.01-1.76.195-2.98.837-6.164 1.453-8.11 3.32v58.955zM341.91 29.477h17.199c3.2 0 6.075-.755 6.058 2.636-.477.532-.609 1.205-1.368 1.464-1.212.413-3.9.098-5.374.098h-11.922c-3.282 0-6.186.76-6.157-2.733.328-.347.475-.906.88-1.172.233-.153.492-.12.684-.293zm50.033 0h17.2c1.934 0 5.145-.47 5.667.977 1.131 1.148-.162 3.124-1.563 3.123-.6.378-4.083.098-5.082.098H395.07c-2.019 0-4.299.253-4.495-1.562-.93-1.16.865-2.2 1.368-2.636zM341.91 41.972h17.199c3.206 0 6.075-.763 6.058 2.635-.48.536-.609 1.196-1.368 1.464-1.181.417-3.921.098-5.374.098h-11.922c-3.277 0-6.186.753-6.157-2.734.3-.316.423-.816.782-1.073.244-.175.568-.195.782-.39zm50.131 0h17.2c2.974 0 5.943-.596 5.96 2.44-.48.63-.576 1.345-1.368 1.66-1.03.407-3.767.097-5.081.097h-11.923c-2.346 0-6.023.576-6.254-1.562-.339-.419-.085-.938 0-1.464.23-.179.277-.505.489-.683.272-.229.697-.267.977-.488zM341.91 54.465h21.693c.826.258 1.042.919 1.564 1.465.013 1.421-.362 2.281-1.368 2.635-1.24.437-4.144.098-5.668.098h-11.335c-1.395 0-3.943.296-5.082-.098-.696-.241-.913-.888-1.368-1.366-.043-2.11.532-1.823 1.564-2.734zm50.131 0h17.2c2.979 0 5.943-.6 5.96 2.44-.472.62-.568 1.376-1.368 1.66-1.156.41-3.851.098-5.277.098H396.83c-2.346 0-6.023.576-6.254-1.562-.339-.419-.085-.937 0-1.464.214-.164.209-.402.391-.586.276-.278.768-.337 1.075-.586z"/></g><g><path fill="#737373" d="M57.574.25h.977c.156.187.17.053.39.195.296.191.439.628.684.879.103 5.795-1.508 9.562-3.906 12.793-.501.674-.997 1.454-1.66 1.953-.889.668-1.774 1.372-2.735 1.953-.418.253-.998.296-1.27.683-.247.354-.287.787-.488 1.172-.723 1.393-1.315 2.812-2.05 4.297-1.546 3.123-3.224 6.584-4.297 10.059h.195c.71-1.053 1.917-1.971 2.93-2.734.71-.536 1.33-1.323 2.05-1.856 1.842-1.364 3.692-2.565 5.665-3.809 1.298-.818 2.465-2.125 4.492-2.148.486.591.997.686 1.074 1.758-.595.814-.71 1.899-1.172 2.832-1.266 2.556-2.27 5.416-3.418 8.106h.293c.38-.773 2.1-1.803 2.832-2.344 2.168-1.605 4.084-3.668 6.25-5.273.722-.537 2.839-1.853 3.125-2.637.164-.435-.305-1.857-.098-2.735.384-1.623.79-3.064 1.563-4.297 1.363-2.172 3.642-3.759 6.348-4.59 3.825-1.174 8.426 1.405 9.863 3.32.806 1.076 1.679 2.338 2.148 3.712 2.201 6.443-3.14 11.616-7.617 12.89-1.761.502-3.577-.137-5.176-.195-.681.863-2.485 1.6-2.93 2.54 1.624 0 3.459.586 4.883.976 3.827 1.047 9.019 1.857 10.84 4.785.588.945.39 2.882.39 4.394 0 5.008.444 7.116-3.124 8.79.088 4.305-1.241 8.16-2.54 11.23-3.922 9.276-11.03 18.057-21.386 20.8H27.301c-1.28-.38-2.718-.781-3.907-1.366C14.982 82.242 8.75 74.886 5.328 65.777c-.822-2.19-1.185-4.59-1.758-7.031l-.195-3.028-.781-.39c-.695-.487-1.505-1.224-1.954-1.953-.792-1.288-.39-5.474-.39-7.52v-2.539c.422-1.382 1.608-2.123 2.734-2.832 3.459-2.178 8.061-2.79 12.696-3.906 1.665-.401 3.359-.3 4.98-.683.618-.147 1.568.086 1.856-.391-.917-1.016-1.233-2.72-1.758-4.102-1.171-3.078-1.784-6.5-2.735-9.961l-.195-1.855c-.49-2.03-.918-3.746 1.855-3.712.53.447 1.409.336 2.149.587 1.79.605 3.654 1.298 5.273 2.148 6.161 3.236 10.362 8.12 11.914 16.015h.684c2.662-4.74.42-11.745-1.27-15.624-6.657-.197-11.288-3.641-14.062-7.813-.88-1.324-2.246-2.996-2.246-5.078.275-.309.325-.641.684-.879.472-.38 1.476-.311 2.343-.293 1.771.037 3.635.375 5.078.781 4.78 1.346 8.407 3.196 10.059 7.618.31.828.385 1.864.586 2.734v1.074c.525 1.318 1.423 2.76 1.953 4.2.249.674.526 3.133.977 3.418.079-.517.394-.89.586-1.27.413-.823.552-1.629.976-2.442.528-1.01 1.341-2.188 1.758-3.222v-2.246c.466-2.036.497-4.075 1.172-5.86 1.184-3.131 3.213-5.924 5.762-7.714.598-.421 1.393-.885 2.05-1.172.514-.225 1.084-.243 1.465-.586zM56.11 4.352c-.562.834-1.733 1.238-2.343 2.05-1.608 2.137-3.28 4.762-3.32 8.399h.195c.614-.805 1.727-1.232 2.343-2.051 1.584-2.106 3.272-4.853 3.32-8.398h-.195zM37.555 15.777c-.154-4.88-6.424-7.08-11.23-7.617v.097h-.099v.196c.312.25.352.646.586.976.47.663 1.061 1.289 1.563 1.953 1.456 1.93 5.898 4.24 9.18 4.395zm36.914 2.246c.164 1.01.9 1.886 1.367 2.637 1.47 2.368 2.875 4.038 5.176 5.566.492.327 2.48 1.77 2.93 1.368.911-1.122.803-3.96.292-5.372-.973-2.689-2.254-3.831-5.176-4.59-.529-.137-1.734-.394-2.539-.195-.664.164-1.368.476-2.05.586zm-53.516 1.563c.031 1.892.864 4.713 1.367 6.348 1.6 5.196 2.996 10.082 6.64 13.183.61.518 1.152 1.357 1.856 1.758.427.243.93.165 1.367.39.533.275.913.796 1.563.977v-.195c-.672-.85-.935-2.057-1.465-3.028-1.203-2.205-2.647-4.417-4.101-6.445-.87-1.213-2.927-2.822-2.93-4.688.606-.653.704-1.097 2.05-1.074 2.59 2.602 4.753 5.797 6.739 8.984.434.697 1.65 3.627 2.148 3.907v-2.93c-.266-.437-.048-1.072-.195-1.66-.395-1.585-.691-3.315-1.367-4.687-2.075-4.213-5.137-6.92-9.277-9.083-1.214-.634-2.755-1.667-4.395-1.757zm60.645 10.546c-1.006-.184-1.821-.96-2.54-1.465-1.915-1.343-3.627-2.894-4.98-4.785-.465-.649-1.717-3.452-2.344-3.613-.289 1.027-.878 1.946-1.172 3.223-.182.796.054 1.91.196 2.442.774 2.9 1.892 4.213 4.59 5.175.71.253 2.082.659 3.222.391 1.143-.269 2.06-.797 3.028-1.074v-.294zm-27.247-.878c-.966.982-2.385 1.63-3.515 2.441-2.79 2-5.637 4.886-7.617 7.715-1.13 1.614-2.3 3.346-2.344 6.055h.098v.097c7.622-1.456 8.775-4.843 11.425-11.133.693-1.642 1.683-3.422 2.149-5.175h-.196zM42.437 50.249c1.723.022 3.93.237 5.47-.097.684-.148 1.61.192 2.148-.098.275-.148.526-.592.78-.78 1.184-.879 2.26-1.875 3.419-2.735 3.4-2.524 6.554-5.291 9.96-7.813.402-.297 1.492-1.086 1.759-1.465.215-.306.27-.689.585-.878.344-.208.759-.172 1.075-.391.869-.604 1.592-1.515 2.441-2.149.49-.364 1.337-.765 1.563-1.367-.984-.34-2.385-2.184-2.832-3.125-1.492.871-2.64 2.309-4.004 3.32-4.109 3.05-7.82 6.513-11.914 9.57-1.663 1.242-3.016 2.994-4.786 4.103-1.79 1.121-3.702 1.43-5.859 2.245.166.462.2.997.195 1.66zM23.2 38.726c-.466.275-1.13.048-1.758.196-1.341.314-2.853.232-4.297.586-3.342.818-6.83 1.26-9.765 2.343-1.18.436-3.521.85-3.906 1.953-.407.75 2.812 2.473 4.003 2.149 2.355-.64 5.133-.962 7.715-1.563h.977c1.738-.401 3.918-.378 5.664-.78h1.074c1.158-.267 2.685-.32 3.809-.587.672-.16 1.19.122 1.562-.293-1.278-.759-3.042-2.717-3.808-4.004h-1.27zm45.117.684c-.57.57-1.298.98-1.953 1.465-.61.451-1.148 1.11-1.758 1.562-.408.303-.945.498-1.171.977h1.074c.824.504 3.783.297 4.98.586 2.203.53 4.62.544 6.836 1.172 1.189.336 2.642.813 3.809 1.074 1.087.242 4.395-1.518 4.492-2.442l-.684-.781c-1.437-.88-3.095-.986-4.883-1.563-3.21-1.035-7.078-1.589-10.742-2.05zm-8.398 6.738c-.556.526-1.234.908-1.856 1.368-.442.327-.827.843-1.27 1.171-.466.347-1.207.631-1.464 1.172h2.05c.816-.488 3.963-.121 5.177-.39 1.167-.26 2.527-.097 3.808-.39 2.23-.513 4.716-.629 6.934-1.075v-.098l-.293-.098c-.776-.47-2.287-.243-3.32-.488-2.233-.53-4.986-.462-7.325-.976-.87-.192-1.728.047-2.441-.196zm-37.793.586c-.46.286-1.117.05-1.758.195-1.833.418-4.347.759-6.348.782v.195l6.543.976c.545-.808 1.978-1.4 2.344-2.148h-.781zm8.691.586c-.328.209-.7.073-1.172.196-1.084.282-2.304.536-3.32.976-2.311 1.002-4.178 2.664-5.176 4.98-.305.71-.197 1.321-.39 2.149-.174.744-.44 2.392-.196 3.418.196.822.362 1.98.586 2.734.429 1.444.662 2.694 1.172 3.906.204.486.132 1.036.586 1.27.459-1.455 1.72-2.733 2.54-3.906 2.396-3.437 4.813-6.85 8.202-9.278a13.674 13.674 0 0 1 2.93-1.562c.695-.26 1.294-.302 1.855-.684l.88-1.074c.054-1.138-.274-2.773-1.27-2.832-.819.645-2.792 1.127-3.809 1.66-2.326 1.22-4.77 2.995-6.25 5.078-1.001 1.41-.841 3.693-3.222 3.711-.6-.682-1.094-.648-1.075-2.05.491-.558.585-1.505.977-2.149.49-.803 1.093-1.588 1.66-2.344.575-.765 2.234-2.263 3.027-2.832.58-.415 1.63-.721 1.954-1.367h-.489zm-27.441.586c-.01 1.382-.14 3.082.098 4.297 2.044 1.154 4.193 1.884 6.64 2.734 1.186.412 2.494.46 3.613.781.456.132 3.594.506 3.614.488.355-.424.115-.998.293-1.66.244-.91.662-1.839.879-2.734h-.098v-.098c-1.418-.026-2.886-.365-4.102-.683l-1.66-.195c-2.034-.552-4.221-.845-6.152-1.563-1.027-.381-2.066-1.153-3.125-1.367zm81.055 0c-.37.338-.773.339-1.27.586-1.98.983-4.494 1.47-6.836 2.148-.595.173-.944.033-1.562.196-1.991.523-4.46.668-6.543 1.172l-2.832.195c-1.45.338-3.407.248-4.883.586h-1.856c-.856.19-2.135.091-3.027.293h-1.855c-.794.175-2.016-.105-2.93.097-2.641.584-7.024.193-10.059.195-.899 1.12-2.231 1.273-3.613 1.954-.737.363-1.414.907-2.05 1.367-.46.33-1.16.606-1.368 1.172h2.734c.655.408 2.077-.083 2.93.098.876.185 2.183.097 3.223.097h5.761c.854-.01 2.219-.017 3.028-.195 1.583-.35 3.378.115 4.785-.195.996-.22 2.104-.012 2.93-.196h1.66c1.469-.33 3.354-.255 4.785-.586 1.406-.325 2.73-.056 4.101-.39 2.495-.607 5.3-.863 7.618-1.563.496-.15.774-.043 1.27-.195 1.543-.474 3.16-1.092 4.491-1.758.589-.294 1.232-.342 1.465-.976.314-.496.109-3.273.098-4.102h-.195zm-77.735 9.18c-.345 1.073.297 3.151.586 4.101.417 1.372.495 2.542.977 3.809.737 1.937 1.792 3.773 2.734 5.468 3.594 6.468 8.998 11.83 16.7 14.16l18.261.001h14.355c8.49-2.589 14.06-8.72 17.774-16.114 1.612-3.207 2.99-6.833 3.32-11.328h-.097v-.097c-2.662 1.116-5.972 1.407-8.985 2.148-1.2.295-2.2.104-3.418.39-2.492.587-5.512.392-8.105.977h-1.563c-1.404.31-3.305.255-4.785.39H51.91c-1.729.38-4.456.196-6.445.196l-9.278-.097c-.762-.169-1.948.097-2.832-.098-.75-.166-1.633-.194-2.539-.195-.55.96-1.423 1.746-2.05 2.637-.942 1.335-1.665 2.696-2.54 4.101-.33.532-.866 1.108-1.171 1.66-.72 1.298-.863 2.95-2.93 2.93-1.947-1.971-2.949-5.73-3.906-8.691-.283-.875-.293-3.3-.684-3.907v-.098c-2.017-.005-4.612-.675-6.348-1.171-1.597-.457-3.124-.539-4.492-1.172zm63.38 5.664h.976c.156.187.17.052.39.195.296.19.439.629.684.879.035 1.956-.95 4.11-1.563 5.566-2.054 4.88-4.112 8.605-8.691 10.938-1.216.62-3.96 1.67-6.152 1.172-2.15-.488-4.11-.876-5.86-1.758-.592-.299-1.234-.969-1.855-1.172h-2.149c-2.79-.623-8.145-.586-8.105-3.809.606-.653.704-1.096 2.05-1.074.98 1.142 5.993 2.095 8.301 1.66.536-1.437 2.97-2.925 4.2-3.808 3.78-2.715 8.206-4.792 12.695-6.836 1.33-.606 2.73-1.011 4.004-1.563.44-.19.767-.107 1.074-.39zm-2.052 4.101c-.846.72-2.291.854-3.32 1.367-2.821 1.41-5.734 2.698-8.3 4.297-1.033.643-2.543 1.17-3.223 2.149h.488c.41-.307.994-.22 1.562-.39 1.197-.361 2.147-.875 3.614-.782.208.276.531.625.78.879.032.7-.038.962-.194 1.562-1.5.91-3.635 1.395-5.567 1.855v.196c.723.033 1.427.225 2.05.39 1.182.314 2.84-.12 3.614-.39 3.56-1.24 5.226-3.386 6.836-6.543.506-.992 1.007-2.16 1.465-3.223.126-.292.388-1.156.293-1.27v-.097h-.098z"/><path fill="#a4c58c" d="M57.574.25h.977c.156.187.17.053.39.195.296.191.439.628.684.879.103 5.795-1.508 9.562-3.906 12.793-.501.674-.997 1.454-1.66 1.953-.889.668-1.774 1.372-2.735 1.953-.418.253-.998.296-1.27.683-.247.354-.287.787-.488 1.172-.723 1.393-1.315 2.812-2.05 4.297-1.546 3.123-3.224 6.584-4.297 10.059h.195c.71-1.053 1.917-1.971 2.93-2.734.71-.536 1.33-1.323 2.05-1.856 1.842-1.364 3.692-2.565 5.665-3.809 1.298-.818 2.465-2.125 4.492-2.148.486.591.997.686 1.074 1.758-.595.814-.71 1.899-1.172 2.832-1.266 2.556-2.27 5.416-3.418 8.106h.293c.38-.773 2.1-1.803 2.832-2.344 2.168-1.605 4.084-3.668 6.25-5.273.722-.537 2.839-1.853 3.125-2.637.164-.435-.305-1.857-.098-2.735.384-1.623.79-3.064 1.563-4.297 1.363-2.172 3.642-3.759 6.348-4.59 3.825-1.174 8.426 1.405 9.863 3.32.806 1.076 1.679 2.338 2.148 3.712 2.201 6.443-3.14 11.616-7.617 12.89-1.761.502-3.577-.137-5.176-.195-.681.863-2.485 1.6-2.93 2.54 1.624 0 3.459.586 4.883.976 3.827 1.047 9.019 1.857 10.84 4.785.588.945.39 2.882.39 4.394 0 5.008.444 7.116-3.124 8.79.088 4.305-1.241 8.16-2.54 11.23-3.922 9.276-11.03 18.057-21.386 20.8H27.301c-1.28-.38-2.718-.781-3.907-1.366C14.982 82.242 8.75 74.886 5.328 65.777c-.822-2.19-1.185-4.59-1.758-7.031l-.195-3.028-.781-.39c-.695-.487-1.505-1.224-1.954-1.953-.792-1.288-.39-5.474-.39-7.52v-2.539c.422-1.382 1.608-2.123 2.734-2.832 3.459-2.178 8.061-2.79 12.696-3.906 1.665-.401 3.359-.3 4.98-.683.618-.147 1.568.086 1.856-.391-.917-1.016-1.233-2.72-1.758-4.102-1.171-3.078-1.784-6.5-2.735-9.961l-.195-1.855c-.49-2.03-.918-3.746 1.855-3.712.53.447 1.409.336 2.149.587 1.79.605 3.654 1.298 5.273 2.148 6.161 3.236 10.362 8.12 11.914 16.015h.684c2.662-4.74.42-11.745-1.27-15.624-6.657-.197-11.288-3.641-14.062-7.813-.88-1.324-2.246-2.996-2.246-5.078.275-.309.325-.641.684-.879.472-.38 1.476-.311 2.343-.293 1.771.037 3.635.375 5.078.781 4.78 1.346 8.407 3.196 10.059 7.618.31.828.385 1.864.586 2.734v1.074c.525 1.318 1.423 2.76 1.953 4.2.249.674.526 3.133.977 3.418.079-.517.394-.89.586-1.27.413-.823.552-1.629.976-2.442.528-1.01 1.341-2.188 1.758-3.222v-2.246c.466-2.036.497-4.075 1.172-5.86 1.184-3.131 3.213-5.924 5.762-7.714.598-.421 1.393-.885 2.05-1.172.514-.225 1.084-.243 1.465-.586zM56.11 4.352c-.562.834-1.733 1.238-2.343 2.05-1.608 2.137-3.28 4.762-3.32 8.399h.195c.614-.805 1.727-1.232 2.343-2.051 1.584-2.106 3.272-4.853 3.32-8.398h-.195zM37.555 15.777c-.154-4.88-6.424-7.08-11.23-7.617v.097h-.099v.196c.312.25.352.646.586.976.47.663 1.061 1.289 1.563 1.953 1.456 1.93 5.898 4.24 9.18 4.395zm36.914 2.246c.164 1.01.9 1.886 1.367 2.637 1.47 2.368 2.875 4.038 5.176 5.566.492.327 2.48 1.77 2.93 1.368.911-1.122.803-3.96.292-5.372-.973-2.689-2.254-3.831-5.176-4.59-.529-.137-1.734-.394-2.539-.195-.664.164-1.368.476-2.05.586zm-53.516 1.563c.031 1.892.864 4.713 1.367 6.348 1.6 5.196 2.996 10.082 6.64 13.183.61.518 1.152 1.357 1.856 1.758.427.243.93.165 1.367.39.533.275.913.796 1.563.977v-.195c-.672-.85-.935-2.057-1.465-3.028-1.203-2.205-2.647-4.417-4.101-6.445-.87-1.213-2.927-2.822-2.93-4.688.606-.653.704-1.097 2.05-1.074 2.59 2.602 4.753 5.797 6.739 8.984.434.697 1.65 3.627 2.148 3.907v-2.93c-.266-.437-.048-1.072-.195-1.66-.395-1.585-.691-3.315-1.367-4.687-2.075-4.213-5.137-6.92-9.277-9.083-1.214-.634-2.755-1.667-4.395-1.757zm60.645 10.546c-1.006-.184-1.821-.96-2.54-1.465-1.915-1.343-3.627-2.894-4.98-4.785-.465-.649-1.717-3.452-2.344-3.613-.289 1.027-.878 1.946-1.172 3.223-.182.796.054 1.91.196 2.442.774 2.9 1.892 4.213 4.59 5.175.71.253 2.082.659 3.222.391 1.143-.269 2.06-.797 3.028-1.074v-.294zm-27.247-.878c-.966.982-2.385 1.63-3.515 2.441-2.79 2-5.637 4.886-7.617 7.715-1.13 1.614-2.3 3.346-2.344 6.055h.098v.097c7.622-1.456 8.775-4.843 11.425-11.133.693-1.642 1.683-3.422 2.149-5.175h-.196zM42.437 50.249c1.723.022 3.93.237 5.47-.097.684-.148 1.61.192 2.148-.098.275-.148.526-.592.78-.78 1.184-.879 2.26-1.875 3.419-2.735 3.4-2.524 6.554-5.291 9.96-7.813.402-.297 1.492-1.086 1.759-1.465.215-.306.27-.689.585-.878.344-.208.759-.172 1.075-.391.869-.604 1.592-1.515 2.441-2.149.49-.364 1.337-.765 1.563-1.367-.984-.34-2.385-2.184-2.832-3.125-1.492.871-2.64 2.309-4.004 3.32-4.109 3.05-7.82 6.513-11.914 9.57-1.663 1.242-3.016 2.994-4.786 4.103-1.79 1.121-3.702 1.43-5.859 2.245.166.462.2.997.195 1.66zM23.2 38.726c-.466.275-1.13.048-1.758.196-1.341.314-2.853.232-4.297.586-3.342.818-6.83 1.26-9.765 2.343-1.18.436-3.521.85-3.906 1.953-.407.75 2.812 2.473 4.003 2.149 2.355-.64 5.133-.962 7.715-1.563h.977c1.738-.401 3.918-.378 5.664-.78h1.074c1.158-.267 2.685-.32 3.809-.587.672-.16 1.19.122 1.562-.293-1.278-.759-3.042-2.717-3.808-4.004h-1.27zm45.117.684c-.57.57-1.298.98-1.953 1.465-.61.451-1.148 1.11-1.758 1.562-.408.303-.945.498-1.171.977h1.074c.824.504 3.783.297 4.98.586 2.203.53 4.62.544 6.836 1.172 1.189.336 2.642.813 3.809 1.074 1.087.242 4.395-1.518 4.492-2.442l-.684-.781c-1.437-.88-3.095-.986-4.883-1.563-3.21-1.035-7.078-1.589-10.742-2.05zm-8.398 6.738c-.556.526-1.234.908-1.856 1.368-.442.327-.827.843-1.27 1.171-.466.347-1.207.631-1.464 1.172h2.05c.816-.488 3.963-.121 5.177-.39 1.167-.26 2.527-.097 3.808-.39 2.23-.513 4.716-.629 6.934-1.075v-.098l-.293-.098c-.776-.47-2.287-.243-3.32-.488-2.233-.53-4.986-.462-7.325-.976-.87-.192-1.728.047-2.441-.196zm-37.793.586c-.46.286-1.117.05-1.758.195-1.833.418-4.347.759-6.348.782v.195l6.543.976c.545-.808 1.978-1.4 2.344-2.148h-.781zm8.691.586c-.328.209-.7.073-1.172.196-1.084.282-2.304.536-3.32.976-2.311 1.002-4.178 2.664-5.176 4.98-.305.71-.197 1.321-.39 2.149-.174.744-.44 2.392-.196 3.418.196.822.362 1.98.586 2.734.429 1.444.662 2.694 1.172 3.906.204.486.132 1.036.586 1.27.459-1.455 1.72-2.733 2.54-3.906 2.396-3.437 4.813-6.85 8.202-9.278a13.674 13.674 0 0 1 2.93-1.562c.695-.26 1.294-.302 1.855-.684l.88-1.074c.054-1.138-.274-2.773-1.27-2.832-.819.645-2.792 1.127-3.809 1.66-2.326 1.22-4.77 2.995-6.25 5.078-1.001 1.41-.841 3.693-3.222 3.711-.6-.682-1.094-.648-1.075-2.05.491-.558.585-1.505.977-2.149.49-.803 1.093-1.588 1.66-2.344.575-.765 2.234-2.263 3.027-2.832.58-.415 1.63-.721 1.954-1.367h-.489zm-27.441.586c-.01 1.382-.14 3.082.098 4.297 2.044 1.154 4.193 1.884 6.64 2.734 1.186.412 2.494.46 3.613.781.456.132 3.594.506 3.614.488.355-.424.115-.998.293-1.66.244-.91.662-1.839.879-2.734h-.098v-.098c-1.418-.026-2.886-.365-4.102-.683l-1.66-.195c-2.034-.552-4.221-.845-6.152-1.563-1.027-.381-2.066-1.153-3.125-1.367zm81.055 0c-.37.338-.773.339-1.27.586-1.98.983-4.494 1.47-6.836 2.148-.595.173-.944.033-1.562.196-1.991.523-4.46.668-6.543 1.172l-2.832.195c-1.45.338-3.407.248-4.883.586h-1.856c-.856.19-2.135.091-3.027.293h-1.855c-.794.175-2.016-.105-2.93.097-2.641.584-7.024.193-10.059.195-.899 1.12-2.231 1.273-3.613 1.954-.737.363-1.414.907-2.05 1.367-.46.33-1.16.606-1.368 1.172h2.734c.655.408 2.077-.083 2.93.098.876.185 2.183.097 3.223.097h5.761c.854-.01 2.219-.017 3.028-.195 1.583-.35 3.378.115 4.785-.195.996-.22 2.104-.012 2.93-.196h1.66c1.469-.33 3.354-.255 4.785-.586 1.406-.325 2.73-.056 4.101-.39 2.495-.607 5.3-.863 7.618-1.563.496-.15.774-.043 1.27-.195 1.543-.474 3.16-1.092 4.491-1.758.589-.294 1.232-.342 1.465-.976.314-.496.109-3.273.098-4.102h-.195zm-77.735 9.18c-.345 1.073.297 3.151.586 4.101.417 1.372.495 2.542.977 3.809.737 1.937 1.792 3.773 2.734 5.468 3.594 6.468 8.998 11.83 16.7 14.16l18.261.001h14.355c8.49-2.589 14.06-8.72 17.774-16.114 1.612-3.207 2.99-6.833 3.32-11.328h-.097v-.097c-2.662 1.116-5.972 1.407-8.985 2.148-1.2.295-2.2.104-3.418.39-2.492.587-5.512.392-8.105.977h-1.563c-1.404.31-3.305.255-4.785.39H51.91c-1.729.38-4.456.196-6.445.196l-9.278-.097c-.762-.169-1.948.097-2.832-.098-.75-.166-1.633-.194-2.539-.195-.55.96-1.423 1.746-2.05 2.637-.942 1.335-1.665 2.696-2.54 4.101-.33.532-.866 1.108-1.171 1.66-.72 1.298-.863 2.95-2.93 2.93-1.947-1.971-2.949-5.73-3.906-8.691-.283-.875-.293-3.3-.684-3.907v-.098c-2.017-.005-4.612-.675-6.348-1.171-1.597-.457-3.124-.539-4.492-1.172zm63.38 5.664h.976c.156.187.17.052.39.195.296.19.439.629.684.879.035 1.956-.95 4.11-1.563 5.566-2.054 4.88-4.112 8.605-8.691 10.938-1.216.62-3.96 1.67-6.152 1.172-2.15-.488-4.11-.876-5.86-1.758-.592-.299-1.234-.969-1.855-1.172h-2.149c-2.79-.623-8.145-.586-8.105-3.809.606-.653.704-1.096 2.05-1.074.98 1.142 5.993 2.095 8.301 1.66.536-1.437 2.97-2.925 4.2-3.808 3.78-2.715 8.206-4.792 12.695-6.836 1.33-.606 2.73-1.011 4.004-1.563.44-.19.767-.107 1.074-.39zm-2.052 4.101c-.846.72-2.291.854-3.32 1.367-2.821 1.41-5.734 2.698-8.3 4.297-1.033.643-2.543 1.17-3.223 2.149h.488c.41-.307.994-.22 1.562-.39 1.197-.361 2.147-.875 3.614-.782.208.276.531.625.78.879.032.7-.038.962-.194 1.562-1.5.91-3.635 1.395-5.567 1.855v.196c.723.033 1.427.225 2.05.39 1.182.314 2.84-.12 3.614-.39 3.56-1.24 5.226-3.386 6.836-6.543.506-.992 1.007-2.16 1.465-3.223.126-.292.388-1.156.293-1.27v-.097h-.098z"/></g></g></svg>